# xmcd
#
# Track frame offsets: 
#        182
#        8717
#        20032
#        29425
#
# Disc length: 585 seconds
#
# Revision: 1
# Processed by: cddbd v1.5.2PL0 Copyright (c) Steve Scherf et al.
# Submitted via: ExactAudioCopy v0.95b3
#
DISCID=27024704
DTITLE=Die Doofen - Jesus
DYEAR=1995
DGENRE=
TTITLE0=Jesus (Video Version)
TTITLE1=Es geht ein Pullunder auf Reisen (Beatles Version)
TTITLE2=Tuff, Tuff, Tuff (Wir fahren in den Puff) (Beatles Version)
TTITLE3=Mief!  (aufgenommen vom Orchester der freiwilligen Feuerwehr S
TTITLE3=prötze)
EXTD=Jesus
EXTT0=
EXTT1=
EXTT2=
EXTT3=
PLAYORDER=
